<?xml version="1.0" encoding="UTF-8" standalone="no"?>
<!-- Created with Inkscape (http://www.inkscape.org/) -->

<svg
   xmlns:dc="http://purl.org/dc/elements/1.1/"
   xmlns:cc="http://creativecommons.org/ns#"
   xmlns:rdf="http://www.w3.org/1999/02/22-rdf-syntax-ns#"
   xmlns:svg="http://www.w3.org/2000/svg"
   xmlns="http://www.w3.org/2000/svg"
   xmlns:sodipodi="http://sodipodi.sourceforge.net/DTD/sodipodi-0.dtd"
   xmlns:inkscape="http://www.inkscape.org/namespaces/inkscape"
   width="512"
   height="512"
   viewBox="0 0 135.46666 135.46667"
   version="1.1"
   id="svg8"
   inkscape:version="0.92.2 2405546, 2018-03-11"
   sodipodi:docname="logo.svg"
   inkscape:export-filename="/home/rishi/compliance_tester.png"
   inkscape:export-xdpi="96.000008"
   inkscape:export-ydpi="96.000008">
  <defs
     id="defs2" />
  <sodipodi:namedview
     id="base"
     pagecolor="#ffffff"
     bordercolor="#666666"
     borderopacity="1.0"
     inkscape:pageopacity="0.0"
     inkscape:pageshadow="2"
     inkscape:zoom="0.7"
     inkscape:cx="217.4986"
     inkscape:cy="223.74572"
     inkscape:document-units="mm"
     inkscape:current-layer="g3514"
     showgrid="false"
     units="px"
     inkscape:window-width="1366"
     inkscape:window-height="693"
     inkscape:window-x="0"
     inkscape:window-y="0"
     inkscape:window-maximized="1"
     inkscape:lockguides="true" />
  <metadata
     id="metadata5">
    <rdf:RDF>
      <cc:Work
         rdf:about="">
        <dc:format>image/svg+xml</dc:format>
        <dc:type
           rdf:resource="http://purl.org/dc/dcmitype/StillImage" />
        <dc:title></dc:title>
      </cc:Work>
    </rdf:RDF>
  </metadata>
  <g
     inkscape:label="Layer 1"
     inkscape:groupmode="layer"
     id="layer1"
     transform="translate(0,-161.53332)">
    <g
       id="g3514"
       transform="matrix(0.1754329,0,0,0.1754329,34.445985,177.96012)">
      <rect
         ry="89.910225"
         y="-93.62072"
         x="-196.34848"
         height="772.16998"
         width="772.18506"
         id="rect2742"
         style="fill:#e3dedb;fill-opacity:1;stroke:none;stroke-width:14.11131763;stroke-miterlimit:4;stroke-dasharray:none;stroke-opacity:1" />
      <path
         style="fill:#666666;fill-opacity:1;stroke:none;stroke-width:0.06526255"
         inkscape:connector-curvature="0"
         d="m -39.188078,-22.383571 c 0.717911,10.181027 1.044366,13.6399238 1.892807,18.4693783 0.1954,1.2398978 0.521723,3.32836749 0.652253,4.56839617 0.326454,2.67572033 2.0886,11.68198353 2.93691,15.01048153 2.023337,7.57044 3.067309,11.35566 4.503394,16.315513 0.913443,3.06744 1.761752,5.677896 1.761752,5.87369 0.06435,0.195663 0.261059,0.783175 0.522249,1.305293 0.195794,0.522117 0.848441,2.284132 1.370558,3.915749 2.153734,6.330411 3.067178,8.875602 3.654428,10.115631 0.326324,0.717911 1.37069,3.19797 2.34966,5.547235 11.3556601,27.932494 31.913376,61.673164 53.319533,87.778244 5.351717,6.52621 8.549555,10.31143 9.593514,11.42093 0.522105,0.58738 2.871659,3.26323 5.221305,5.93882 4.633412,5.28644 25.452295,26.30087 31.65219,31.97864 7.113587,6.39581 10.507494,9.39798 12.987132,11.35579 1.370689,1.04411 3.262971,2.67585 4.242073,3.58942 0.978996,0.91371 2.61059,2.28416 3.65458,3.06743 1.10964,0.78308 2.67584,2.02296 3.58968,2.74099 0.91343,0.71792 3.52416,2.80626 5.87344,4.63354 2.34952,1.82741 4.76445,3.78522 5.41682,4.30733 0.58739,0.52213 1.30517,0.91384 1.43594,0.91384 0.19555,0 2.15364,1.43571 4.43777,3.13258 2.21884,1.69676 6.85262,5.02512 10.24638,7.30926 3.39338,2.28425 6.33028,4.43799 6.39568,4.69892 0.13,0.26117 0.52172,0.5221 0.78307,0.5221 0.52223,0 9.0715,5.09054 9.78942,5.87358 0.39171,0.39169 2.08834,1.37055 6.72199,3.981 l 3.13246,1.69688 -2.15361,1.76227 c -3.39351,2.80627 -3.8505,3.13259 -9.33285,6.9178 -21.07956,14.48823 -42.15939,24.47334 -66.697871,31.65233 l -4.111648,1.17477 v 2.87137 2.87166 l 3.524147,-0.32634 c 3.654691,-0.39158 7.440029,-0.91371 9.789571,-1.43569 0.717793,-0.19578 2.088076,-0.45698 3.002162,-0.58752 8.483909,-1.30517 22.515419,-4.43772 34.915299,-7.76622 10.89878,-2.93678 29.30291,-9.20204 37.85246,-12.8566 1.10937,-0.45699 2.08805,-0.84846 2.28373,-0.91371 0.19593,0 1.76241,-0.71779 3.5243,-1.50109 1.76227,-0.78318 3.26323,-1.43572 3.39376,-1.43572 0.0643,0 2.74098,-1.17473 5.87342,-2.67582 l 5.74328,-2.61046 6.8528,3.19769 c 16.51143,7.76649 31.58694,14.03166 44.11721,18.27361 5.80842,1.95793 23.88622,7.0483 27.08392,7.57043 0.91385,0.19578 1.63162,0.32633 1.63162,0.39158 0,0.0643 0.58751,0.19592 1.30505,0.26107 1.10964,0.19578 5.54749,0.97909 10.7688,2.02319 0.84804,0.19579 2.74085,0.45672 4.2418,0.65263 1.43581,0.26108 3.32837,0.52215 4.24194,0.65255 0.9137,0.13143 3.13297,0.3917 4.89485,0.65263 1.82756,0.19579 4.63365,0.5221 6.39581,0.71793 3.26324,0.3917 3.19784,0.45685 3.26324,-3.32837 0.0644,-1.82743 -0.19593,-2.02321 -3.78537,-3.19773 -2.15346,-0.65278 -4.37258,-1.37057 -4.89472,-1.56648 -0.5221,-0.19579 -1.56634,-0.45673 -2.28398,-0.58736 -0.71817,-0.0644 -1.89281,-0.45685 -2.61074,-0.78308 -0.71764,-0.32631 -3.19769,-1.30526 -5.54735,-2.08844 -9.39758,-3.13258 -33.61013,-14.61876 -36.61232,-17.29462 -0.52195,-0.52211 -1.24002,-0.91358 -1.50095,-0.91358 -0.26104,0 -2.61059,-1.37056 -5.15576,-3.06744 -2.61048,-1.76203 -4.95999,-3.26312 -5.35146,-3.39362 -0.32645,-0.13147 -0.91371,-0.52214 -1.30541,-0.84832 -0.32633,-0.32631 -2.67584,-2.08861 -5.2208,-3.85061 -2.48018,-1.82728 -5.28627,-3.8505 -6.19988,-4.56826 -0.9138,-0.65267 -2.48016,-1.82741 -3.45915,-2.61073 l -1.827,-1.37031 2.15331,-1.50106 c 1.17479,-0.78331 3.65484,-2.21902 5.41658,-3.19798 1.8277,-1.04423 4.17707,-2.54507 5.35172,-3.39352 1.10938,-0.84841 2.21901,-1.56633 2.41479,-1.56633 0.32647,0 4.43801,-2.61046 5.93897,-3.71994 0.3917,-0.32646 4.04639,-2.80627 8.22309,-5.6125 4.17665,-2.74112 8.15779,-5.61278 8.94071,-6.33056 0.78319,-0.71792 1.63202,-1.30543 1.89281,-1.30543 0.26093,0 1.50111,-0.91356 2.74085,-1.95781 1.17491,-1.10938 2.34965,-1.95781 2.61058,-1.95781 0.19582,0 1.30555,-0.84845 2.47995,-1.82741 1.10964,-0.97895 3.00215,-2.47991 4.24232,-3.39361 3.13259,-2.41481 18.14281,-14.87984 20.75325,-17.29463 1.24003,-1.17477 4.30734,-3.98102 6.85268,-6.26515 13.05251,-11.87777 31.39138,-31.326 41.83321,-44.31314 2.48019,-3.06744 4.76445,-5.87382 5.15603,-6.33054 0.32631,-0.45686 0.97896,-1.17477 1.30489,-1.63161 4.04643,-5.22105 4.89486,-6.33042 4.89486,-6.91793 0,-0.39146 0.26106,-0.78305 0.52213,-0.91358 0.65265,-0.26106 6.85252,-8.61467 11.02945,-14.87982 3.85034,-5.74329 13.24821,-20.884053 13.24821,-21.27551 0,-0.131448 0.71778,-1.435953 1.63148,-2.806512 1.82743,-2.936779 11.09475,-21.014437 13.18306,-25.843761 0.7832,-1.827542 2.34968,-5.351573 3.45891,-7.83163 1.10938,-2.545322 2.02333,-4.633661 2.02333,-4.764059 -0.0644,-0.06435 0.39133,-1.24016 0.97886,-2.610587 1.82741,-4.307338 8.02729,-23.233437 9.39782,-28.519876 2.0231,-7.766234 4.37261,-18.534512 4.89447,-21.8627475 0.19593,-1.6317484 0.5221,-3.65495278 0.65263,-4.56852704 0.32633,-2.41466226 1.10964,-7.37464626 1.30533,-8.48414646 0.71788,-3.78522 1.50108,-19.578614 1.04424,-19.578614 -0.39147,0 -5.87357,2.088338 -10.50725,3.981013 -2.93692,1.174765 -24.34291,9.462984 -41.44147,16.0545851 -7.76652,2.9367797 -27.73697,9.7891765 -29.95583,10.2461606 -0.39146,0.1313175 -2.47981,0.7177804 -4.63368,1.3704274 -2.1536,0.7179112 -4.04626,1.2400287 -4.24208,1.305162 -0.1955,0.064349 -2.08834,0.5875137 -4.2418,1.305425 -2.15374,0.652647 -4.17707,1.2398977 -4.56839,1.3704264 -0.91371,0.1957939 -16.05471,4.6989255 -29.69464,8.8104685 -2.34967,0.717912 -4.95997,1.435692 -5.87368,1.631486 -0.84845,0.195925 -1.69678,0.456984 -1.82717,0.522249 -0.13001,0.131448 -0.32646,6.199882 -0.45697,13.509394 -0.13,7.30925 -0.39174,14.618632 -0.65267,16.250248 -0.19578,1.631486 -0.5221,3.981014 -0.71788,5.221043 -0.19593,1.239897 -0.45686,3.458897 -0.58739,4.894719 -0.32608,3.197838 -1.24016,9.267191 -1.89242,12.399764 -2.67574,12.661084 -6.72227,28.193552 -8.87572,34.263039 -4.76419,13.5744 -7.83163,21.6671 -8.61469,22.45027 -0.26094,0.3916 -0.5221,1.04424 -0.5221,1.50096 0,2.4148 -17.35975,36.93863 -19.18731,38.17866 -0.39159,0.26105 -0.45684,0.52211 -0.19578,0.52211 0.26118,0 -0.32634,1.24003 -1.37045,2.74112 -1.04421,1.56622 -2.41491,3.85035 -3.06716,5.09038 -0.65263,1.23989 -1.37043,2.41466 -1.56635,2.61046 -0.19578,0.19579 -2.67598,3.72008 -5.41671,7.83163 -5.87382,8.6798 -9.00641,13.2482 -9.59389,13.70505 -0.19583,0.1958 -1.6965,2.08834 -3.32814,4.24194 -1.63173,2.15372 -3.52429,4.63367 -4.3076,5.54738 -3.26294,3.91572 -11.81263,13.64005 -14.29244,16.1851 l -2.74098,2.87166 -4.50297,-5.09039 c -2.48034,-2.74113 -4.76432,-5.35172 -5.15578,-5.74328 -0.32632,-0.39147 -1.76231,-2.08835 -3.13258,-3.78523 -1.37071,-1.69687 -2.80614,-3.4589 -3.26337,-3.91562 -0.45658,-0.45686 -3.06745,-3.9159 -5.87381,-7.7011 -2.80601,-3.78522 -5.35119,-7.24412 -5.74279,-7.70097 -0.71791,-0.91371 -6.98331,-10.1809 -8.09256,-12.00831 -0.32632,-0.58738 -2.67597,-4.3726 -5.09036,-8.35348 -2.48006,-4.04642 -5.41699,-9.07153 -6.59202,-11.29053 -5.09035,-9.39772 -8.09217,-15.4672 -7.70069,-15.4672 0.26131,0 0.13001,-0.26106 -0.26094,-0.52225 -0.65263,-0.45672 -7.11359,-14.74916 -10.63771,-23.69016 -1.89281,-4.82945 -7.0482,-19.97035 -7.63584,-22.31988 -0.13,-0.587248 -0.39147,-1.696748 -0.52187,-2.41466 -0.1962,-0.717911 -0.52223,-1.631485 -0.71805,-1.957809 -0.19578,-0.326322 -0.52211,-1.174763 -0.65263,-1.762277 -0.13001,-0.652515 -0.9791,-4.437736 -1.95806,-8.353485 -1.95743,-8.223217 -3.39352,-15.336804 -3.85037,-18.599908 -0.19579,-1.239897 -0.457,-2.936778 -0.65265,-3.785219 -0.19578,-0.84831 -0.52213,-3.328368 -0.71778,-5.547367 -0.2613,-2.218867 -0.52213,-4.959721 -0.71816,-6.004087 -0.522,-3.850485 -1.10925,-15.793526 -1.17464,-23.429231 -0.0644,-7.70097 -0.0644,-7.831499 -1.69674,-8.288352 -0.91371,-0.261059 -5.743305,-1.69675 -10.768278,-3.197838 C 85.659193,15.46876 79.654948,13.64148 77.305709,12.988834 74.956298,12.270922 72.606636,11.553011 72.084532,11.422481 56.486786,7.1804086 38.735333,1.2415862 18.569322,-6.5246488 9.040942,-10.179339 8.3230306,-10.440398 4.7336047,-12.006618 c -1.3054245,-0.587514 -2.6105866,-1.044367 -2.9366481,-1.044367 -0.2610583,-0.06435 -1.69701289,-0.587251 -3.1328356,-1.305162 -1.4356917,-0.717912 -2.8715144,-1.305293 -3.2631022,-1.305293 -0.3263235,0 -4.6336606,-1.631486 -9.4631158,-3.589558 -4.829192,-1.957809 -9.006394,-3.589295 -9.332324,-3.589295 -0.261452,0 -1.696881,-0.587382 -3.263365,-1.239897 -4.437604,-2.023205 -11.290394,-4.63366 -12.138572,-4.63366 -0.65291,0 -0.783046,1.370426 -0.39172,6.330279 z"
         id="path2740" />
      <g
         id="g2793"
         transform="matrix(1.4280107,0,0,1.4280107,-4598.4369,-199.47509)">
        <rect
           style="fill:#43a047;fill-opacity:1;stroke:none;stroke-width:6.92093611;stroke-miterlimit:4;stroke-dasharray:none;stroke-opacity:1"
           id="rect2787"
           width="176.94011"
           height="71.106773"
           x="3160.1169"
           y="505.35938"
           ry="0" />
        <rect
           ry="0"
           y="389.60419"
           x="3160.1169"
           height="71.106773"
           width="176.94011"
           id="rect2789"
           style="fill:#43a047;fill-opacity:1;stroke:none;stroke-width:6.92093611;stroke-miterlimit:4;stroke-dasharray:none;stroke-opacity:1" />
      </g>
      <g
         transform="matrix(1.4280107,0,0,1.4280107,-4293.9067,-199.47509)"
         id="g3468">
        <rect
           ry="0"
           y="505.35938"
           x="3160.1169"
           height="71.106773"
           width="176.94011"
           id="rect3464"
           style="fill:#43a047;fill-opacity:1;stroke:none;stroke-width:6.92093611;stroke-miterlimit:4;stroke-dasharray:none;stroke-opacity:1" />
        <rect
           style="fill:#ff4444;fill-opacity:0.94117647;stroke:none;stroke-width:6.92093611;stroke-miterlimit:4;stroke-dasharray:none;stroke-opacity:1"
           id="rect3466"
           width="176.94011"
           height="71.106773"
           x="3160.1169"
           y="389.60419"
           ry="0" />
      </g>
    </g>
  </g>
</svg>
