<?xml version="1.0" standalone="no"?>
<!DOCTYPE svg PUBLIC "-//W3C//DTD SVG 20010904//EN"
 "http://www.w3.org/TR/2001/REC-SVG-20010904/DTD/svg10.dtd">
<svg version="1.0" xmlns="http://www.w3.org/2000/svg"
 width="700.000000pt" height="700.000000pt" viewBox="0 0 700.000000 700.000000"
 preserveAspectRatio="xMidYMid meet">
<metadata>
Created by potrace 1.11, written by Peter Selinger 2001-2013
</metadata>
<g transform="translate(0.000000,700.000000) scale(0.100000,-0.100000)"
fill="#000000" stroke="none">
<path d="M1425 6338 c33 -362 130 -667 317 -1003 194 -348 417 -629 747 -938
195 -183 452 -382 639 -493 45 -27 81 -53 79 -59 -2 -5 -53 -43 -113 -84 -135
-91 -340 -192 -499 -247 -87 -29 -121 -45 -123 -58 -7 -33 12 -37 104 -21 290
51 592 140 816 242 l78 36 148 -66 c306 -137 560 -210 835 -243 l59 -7 -4 29
c-3 26 -10 30 -73 50 -139 43 -315 122 -450 202 -68 40 -245 164 -245 172 0 3
33 25 73 49 239 146 526 369 725 565 530 520 861 1109 961 1711 15 86 25 235
17 235 -4 0 -123 -44 -264 -99 -282 -108 -463 -169 -770 -261 -112 -33 -205
-60 -206 -60 -2 0 -6 -69 -9 -152 -8 -183 -25 -300 -72 -482 -110 -432 -344
-861 -663 -1215 l-48 -55 -45 48 c-158 173 -334 434 -444 663 -172 355 -255
657 -273 996 -6 92 -11 170 -13 171 -2 2 -112 36 -244 76 -258 77 -427 137
-794 279 -129 50 -239 91 -244 91 -5 0 -6 -29 -2 -72z"/>
<path d="M1007 2913 c-4 -3 -7 -210 -7 -460 l0 -453 1145 0 1145 0 0 460 0
460 -1138 0 c-626 0 -1142 -3 -1145 -7z"/>
<path d="M3765 2908 c-3 -7 -4 -215 -3 -463 l3 -450 1143 -3 1142 -2 0 465 0
465 -1140 0 c-903 0 -1142 -3 -1145 -12z"/>
<path d="M1000 960 l0 -460 1145 0 1145 0 0 460 0 460 -1145 0 -1145 0 0 -460z"/>
<path d="M3760 960 l0 -460 1145 0 1145 0 0 460 0 460 -1145 0 -1145 0 0 -460z"/>
</g>
</svg>
